<?xml version="1.0" standalone="no"?>
<!DOCTYPE svg PUBLIC "-//W3C//DTD SVG 20010904//EN"
 "http://www.w3.org/TR/2001/REC-SVG-20010904/DTD/svg10.dtd">
<svg version="1.0" xmlns="http://www.w3.org/2000/svg"
 width="640.000000pt" height="640.000000pt" viewBox="0 0 640.000000 640.000000"
 preserveAspectRatio="xMidYMid meet">
<metadata>
Created by potrace 1.14, written by Peter Selinger 2001-2017
</metadata>
<g transform="translate(0.000000,640.000000) scale(0.100000,-0.100000)"
fill="#000000" stroke="none">
<path d="M2633 6305 c13 -33 55 -139 92 -235 37 -96 78 -203 92 -238 13 -35
40 -104 59 -155 19 -51 38 -101 43 -112 5 -11 29 -74 55 -140 25 -66 70 -183
100 -260 30 -77 53 -141 52 -142 -1 -2 -56 -16 -121 -32 -274 -70 -469 -178
-577 -321 l-27 -35 -658 -1 c-639 0 -659 -1 -703 -20 -55 -25 -105 -80 -119
-131 -7 -26 -11 -499 -11 -1461 0 -1171 2 -1428 13 -1455 21 -50 63 -93 113
-118 42 -20 62 -22 210 -22 l163 -1 9 -26 c35 -99 178 -164 295 -134 76 19
121 54 156 119 l21 40 1270 1 c1229 0 1270 0 1270 -18 0 -56 58 -131 128 -164
58 -28 155 -27 217 1 27 13 57 30 65 37 29 24 58 74 65 109 l7 35 137 1 c121
0 142 3 181 23 25 12 57 36 71 51 58 65 55 -21 54 1539 l0 1435 -27 46 c-27
46 -81 90 -128 105 -14 4 -186 8 -383 8 l-358 1 -27 35 c-118 152 -345 272
-633 334 l-77 17 24 49 c13 28 24 53 24 56 0 4 75 201 166 438 219 571 210
547 255 659 22 55 39 100 37 102 -2 2 -48 -83 -102 -188 -55 -106 -120 -232
-146 -282 -72 -138 -213 -409 -321 -620 l-97 -190 -112 -2 c-61 -1 -118 -4
-125 -7 -8 -3 -18 0 -22 7 -8 12 -166 314 -294 562 -39 77 -89 172 -109 210
-20 39 -90 174 -155 300 -124 243 -150 287 -112 190z"/>
</g>
</svg>
